# xmcd CD database file
#
# Track frame offsets:
#	150
#	19384
#	37264
#	54239
#	73545
#	89964
#	103682
#	118497
#	140650
#	158407
#	174197
#	188495
#	204296
#	219599
#	238554
#	252720
#	266819
#	280893
#	298651
#
# Disc length: 4183 seconds
#
# Revision: 1
# Processed by: cddbd v1.5.2PL0 Copyright (c) Steve Scherf et al.
# Submitted via: CDex 1.70beta2
#
DISCID=29105513
DTITLE=Michael Connelly - The Brass Verdict Disc 3
DYEAR=2008
DGENRE=Audio Book
TTITLE0=The Brass Verdict Disc 3-01
TTITLE1=The Brass Verdict Disc 3-02
TTITLE2=The Brass Verdict Disc 3-03
TTITLE3=The Brass Verdict Disc 3-04
TTITLE4=The Brass Verdict Disc 3-05
TTITLE5=The Brass Verdict Disc 3-06
TTITLE6=The Brass Verdict Disc 3-07
TTITLE7=The Brass Verdict Disc 3-08
TTITLE8=The Brass Verdict Disc 3-09
TTITLE9=The Brass Verdict Disc 3-10
TTITLE10=The Brass Verdict Disc 3-11
TTITLE11=The Brass Verdict Disc 3-12
TTITLE12=The Brass Verdict Disc 3-13
TTITLE13=The Brass Verdict Disc 3-14
TTITLE14=The Brass Verdict Disc 3-15
TTITLE15=The Brass Verdict Disc 3-16
TTITLE16=The Brass Verdict Disc 3-17
TTITLE17=The Brass Verdict Disc 3-18
TTITLE18=The Brass Verdict Disc 3-19
EXTD=YEAR: 2008
EXTT0=
EXTT1=
EXTT2=
EXTT3=
EXTT4=
EXTT5=
EXTT6=
EXTT7=
EXTT8=
EXTT9=
EXTT10=
EXTT11=
EXTT12=
EXTT13=
EXTT14=
EXTT15=
EXTT16=
EXTT17=
EXTT18=
PLAYORDER=
